<svg width="92" height="20" viewBox="0 0 92 20" fill="none" xmlns="http://www.w3.org/2000/svg">
<path fill-rule="evenodd" clip-rule="evenodd" d="M4.6476 12.8833L3.91966 15.1336C3.845 15.3587 3.82167 15.518 3.84967 15.6118C3.87766 15.7056 3.97565 15.8744 4.14364 16.1181L6.63542 19.7187V19.775H0V19.7187L2.68777 16.1181C2.98641 15.7243 3.20105 15.3305 3.33171 14.9367L7.22337 2.95359C7.3167 2.69104 7.35403 2.50821 7.33536 2.40506C7.3167 2.30192 7.22337 2.15659 7.05539 1.96906L5.40353 0.0562588V0H11.983L17.2185 16.6807C17.3118 16.9995 17.4985 17.384 17.7785 17.834L18.9544 19.7187V19.775H10.6671V19.7187L12.011 17.834C12.1416 17.6465 12.1603 17.3933 12.067 17.0745L10.7511 12.8833H4.6476ZM7.75533 3.20675L4.81558 12.3207H10.5831L7.75533 3.20675ZM29.0335 10.4641L25.8977 19.775H22.706L19.0383 9.08579C18.7957 8.41069 18.5997 7.91374 18.4504 7.59494L17.5825 5.90717V5.85091H24.5819V5.90717L23.6299 7.51055C23.4993 7.73558 23.4713 7.96999 23.546 8.21378L26.3457 16.7089L28.5015 10.3797C28.5762 10.0797 28.6088 9.88748 28.5995 9.80309C28.5902 9.71871 28.5295 9.55462 28.4175 9.31083L26.7657 5.90717V5.85091H31.5813V5.90717L29.6774 9.19831C29.3414 9.7609 29.1268 10.1828 29.0335 10.4641ZM44.4321 12.18H36.0329V12.2363C36.0329 13.9616 36.4062 15.2508 37.1528 16.1041C37.8994 16.9573 38.8606 17.384 40.0365 17.384C42.015 17.384 43.4336 16.5213 44.2921 14.7961H44.3481C43.6389 18.2654 41.5764 20 38.1607 20C36.2382 20 34.6143 19.3999 33.2891 18.1997C31.9639 16.9995 31.3013 15.2368 31.3013 12.9114C31.3013 10.4547 31.9639 8.62635 33.2891 7.42616C34.6143 6.22597 36.2942 5.62588 38.3287 5.62588C39.1126 5.62588 39.8499 5.72902 40.5405 5.9353C41.2311 6.14159 41.8797 6.46038 42.4863 6.8917C43.0929 7.32302 43.5735 7.93717 43.9282 8.73418C44.2828 9.53118 44.4601 10.4735 44.4601 11.5612C44.4601 11.7487 44.4508 11.955 44.4321 12.18ZM38.2727 6.16034C37.5447 6.16034 36.9941 6.58696 36.6208 7.44023C36.2475 8.29349 36.0515 9.70463 36.0329 11.6737H40.1485C40.1672 11.4299 40.1765 11.1486 40.1765 10.8298C40.1765 9.08579 40.0132 7.87155 39.6866 7.18706C39.3599 6.50257 38.8886 6.16034 38.2727 6.16034ZM60.4187 11.5612C60.4187 12.2363 60.4047 13.3568 60.3768 14.9226C60.3488 16.4885 60.3348 17.4308 60.3348 17.7496C60.3348 18.0309 60.4187 18.256 60.5867 18.4248L61.9866 19.7187V19.775H54.1193V19.7187L55.4632 18.4248C55.6312 18.256 55.7152 18.0403 55.7152 17.7778C55.7152 17.7215 55.7292 16.9105 55.7572 15.3446C55.7852 13.7787 55.7991 12.7332 55.7991 12.2082C55.7991 10.8017 55.6498 9.74215 55.3512 9.02954C55.0525 8.31692 54.4926 7.96062 53.6713 7.96062C52.8501 7.96062 52.1595 8.37318 51.5995 9.19831V17.7496C51.5995 18.0497 51.6835 18.2747 51.8515 18.4248L53.2234 19.7187V19.775H45.3841V19.7187L46.7559 18.4248C46.9239 18.2747 47.0079 18.0497 47.0079 17.7496V8.01688C47.0079 7.73558 46.9239 7.50117 46.7559 7.31364L45.3841 5.90717V5.85091H51.5995V8.83263C52.3648 6.69479 53.8486 5.62588 56.0511 5.62588C57.451 5.62588 58.5289 6.1322 59.2848 7.14487C60.0408 8.15753 60.4187 9.62962 60.4187 11.5612ZM76.6013 5.85091V17.6371C76.6013 17.9559 76.6853 18.1903 76.8533 18.3404L78.2532 19.7187V19.775H72.0097V16.7651C71.6551 17.759 71.1045 18.5466 70.3579 19.128C69.6113 19.7093 68.734 20 67.7261 20C66.3449 20 65.2903 19.5031 64.5624 18.5091C63.8344 17.5152 63.4705 16.0619 63.4705 14.1491C63.4705 13.0802 63.4891 11.0267 63.5265 7.98875C63.5265 7.70745 63.4425 7.48242 63.2745 7.31364L61.9026 5.90717V5.85091H68.0901L68.0621 9.56399V13.5021C68.0621 14.8711 68.2021 15.9119 68.482 16.6245C68.762 17.3371 69.266 17.6934 69.9939 17.6934C70.7592 17.6934 71.4311 17.2715 72.0097 16.4276V8.01688C72.0097 7.73558 71.9257 7.50117 71.7578 7.31364L70.3859 5.90717V5.85091H76.6013ZM91.972 12.18H83.5727V12.2363C83.5727 13.9616 83.946 15.2508 84.6926 16.1041C85.4392 16.9573 86.4005 17.384 87.5764 17.384C89.5549 17.384 90.9734 16.5213 91.832 14.7961H91.888C91.1787 18.2654 89.1163 20 85.7005 20C83.778 20 82.1542 19.3999 80.829 18.1997C79.5037 16.9995 78.8411 15.2368 78.8411 12.9114C78.8411 10.4547 79.5037 8.62635 80.829 7.42616C82.1542 6.22597 83.834 5.62588 85.8685 5.62588C86.6525 5.62588 87.3897 5.72902 88.0803 5.9353C88.7709 6.14159 89.4196 6.46038 90.0262 6.8917C90.6328 7.32302 91.1134 7.93717 91.468 8.73418C91.8227 9.53118 92 10.4735 92 11.5612C92 11.7487 91.9907 11.955 91.972 12.18ZM85.8125 6.16034C85.0846 6.16034 84.534 6.58696 84.1607 7.44023C83.7874 8.29349 83.5914 9.70463 83.5727 11.6737H87.6884C87.707 11.4299 87.7164 11.1486 87.7164 10.8298C87.7164 9.08579 87.5531 7.87155 87.2264 7.18706C86.8998 6.50257 86.4285 6.16034 85.8125 6.16034Z" fill="#F5F5F2"/>
</svg>
