<svg width="88" height="20" viewBox="0 0 88 20" fill="none" xmlns="http://www.w3.org/2000/svg">
<path d="M25.0105 15.7211V4.03419H29.2904C30.1197 4.03419 30.8064 4.17115 31.3504 4.44506C31.8945 4.71516 32.3015 5.08228 32.5716 5.54641C32.8417 6.00673 32.9768 6.52602 32.9768 7.10428C32.9768 7.59123 32.8874 8.0021 32.7086 8.33688C32.5298 8.66786 32.2901 8.93416 31.9896 9.13579C31.6928 9.33362 31.3657 9.47818 31.008 9.56948V9.68361C31.3961 9.70264 31.7746 9.82818 32.1436 10.0602C32.5165 10.2885 32.8246 10.6138 33.0681 11.0361C33.3116 11.4583 33.4333 11.9719 33.4333 12.5768C33.4333 13.1741 33.2925 13.7105 33.011 14.186C32.7333 14.6578 32.3034 15.0325 31.7214 15.3102C31.1393 15.5841 30.3955 15.7211 29.4901 15.7211H25.0105ZM26.7738 14.2089H29.3189C30.1635 14.2089 30.7684 14.0453 31.1336 13.7181C31.4988 13.3909 31.6814 12.982 31.6814 12.4912C31.6814 12.1222 31.5882 11.7836 31.4018 11.4755C31.2154 11.1673 30.9491 10.9219 30.6029 10.7393C30.2605 10.5567 29.8534 10.4654 29.3817 10.4654H26.7738V14.2089ZM26.7738 9.09014H29.1363C29.532 9.09014 29.8877 9.01405 30.2034 8.86188C30.523 8.70971 30.776 8.49666 30.9624 8.22275C31.1526 7.94504 31.2477 7.61787 31.2477 7.24124C31.2477 6.75809 31.0784 6.35293 30.7398 6.02575C30.4013 5.69858 29.882 5.535 29.182 5.535H26.7738V9.09014ZM40.9402 12.086V6.95591H42.6521V15.7211H40.9744V14.2032H40.8831C40.6815 14.6711 40.3581 15.061 39.913 15.373C39.4717 15.6811 38.922 15.8352 38.2638 15.8352C37.7008 15.8352 37.2024 15.7116 36.7687 15.4643C36.3389 15.2132 36.0003 14.8423 35.753 14.3515C35.5095 13.8608 35.3878 13.254 35.3878 12.5312V6.95591H37.094V12.3257C37.094 12.923 37.2595 13.3985 37.5905 13.7523C37.9215 14.1061 38.3513 14.283 38.8801 14.283C39.1997 14.283 39.5174 14.2032 39.8331 14.0434C40.1527 13.8836 40.4171 13.642 40.6263 13.3186C40.8394 12.9953 40.944 12.5844 40.9402 12.086ZM44.9447 15.7211V6.95591H46.651V15.7211H44.9447ZM45.8064 5.60347C45.5097 5.60347 45.2548 5.50456 45.0417 5.30674C44.8325 5.10511 44.7279 4.86543 44.7279 4.58772C44.7279 4.3062 44.8325 4.06653 45.0417 3.8687C45.2548 3.66707 45.5097 3.56626 45.8064 3.56626C46.1031 3.56626 46.3561 3.66707 46.5654 3.8687C46.7784 4.06653 46.8849 4.3062 46.8849 4.58772C46.8849 4.86543 46.7784 5.10511 46.5654 5.30674C46.3561 5.50456 46.1031 5.60347 45.8064 5.60347ZM50.6526 4.03419V15.7211H48.9464V4.03419H50.6526ZM56.2293 15.8923C55.5217 15.8923 54.8902 15.7116 54.3347 15.3502C53.7831 14.9849 53.3494 14.4657 53.0337 13.7923C52.7217 13.1151 52.5657 12.3029 52.5657 11.3556C52.5657 10.4083 52.7236 9.59802 53.0394 8.92465C53.3589 8.25129 53.7964 7.7358 54.3519 7.37819C54.9073 7.02059 55.5369 6.84178 56.2407 6.84178C56.7847 6.84178 57.2222 6.93309 57.5532 7.11569C57.888 7.2945 58.1467 7.50374 58.3293 7.74341C58.5157 7.98308 58.6603 8.19422 58.763 8.37683H58.8657V4.03419H60.5719V15.7211H58.9056V14.3572H58.763C58.6603 14.5436 58.5119 14.7567 58.3179 14.9964C58.1277 15.236 57.8652 15.4453 57.5304 15.6241C57.1956 15.8029 56.7619 15.8923 56.2293 15.8923ZM56.6059 14.4371C57.0967 14.4371 57.5114 14.3078 57.8499 14.0491C58.1923 13.7866 58.451 13.4233 58.626 12.9591C58.8048 12.495 58.8942 11.9548 58.8942 11.3385C58.8942 10.7298 58.8067 10.1972 58.6317 9.74068C58.4567 9.28416 58.1999 8.92846 57.8614 8.67357C57.5228 8.41868 57.1043 8.29123 56.6059 8.29123C56.0923 8.29123 55.6644 8.42438 55.322 8.69069C54.9796 8.95699 54.7209 9.3203 54.5459 9.78062C54.3747 10.2409 54.2891 10.7602 54.2891 11.3385C54.2891 11.9244 54.3766 12.4513 54.5516 12.9192C54.7266 13.3871 54.9853 13.758 55.3277 14.032C55.6739 14.3021 56.1 14.4371 56.6059 14.4371ZM67.1786 6.95591V8.32547H62.2254V6.95591H67.1786ZM63.5835 15.7211V5.94016C63.5835 5.39233 63.7034 4.93772 63.943 4.57631C64.1827 4.21109 64.5004 3.93908 64.896 3.76028C65.2917 3.57767 65.7216 3.48637 66.1857 3.48637C66.5281 3.48637 66.821 3.5149 67.0645 3.57196C67.308 3.62522 67.4887 3.67468 67.6066 3.72033L67.2072 5.1013C67.1273 5.07848 67.0246 5.05185 66.899 5.02141C66.7735 4.98717 66.6213 4.97005 66.4425 4.97005C66.0278 4.97005 65.7311 5.07277 65.5523 5.2782C65.3773 5.48364 65.2898 5.78038 65.2898 6.16842V15.7211H63.5835ZM68.9391 15.7211V6.95591H70.6453V15.7211H68.9391ZM69.8008 5.60347C69.504 5.60347 69.2491 5.50456 69.0361 5.30674C68.8269 5.10511 68.7222 4.86543 68.7222 4.58772C68.7222 4.3062 68.8269 4.06653 69.0361 3.8687C69.2491 3.66707 69.504 3.56626 69.8008 3.56626C70.0975 3.56626 70.3505 3.66707 70.5597 3.8687C70.7728 4.06653 70.8793 4.3062 70.8793 4.58772C70.8793 4.86543 70.7728 5.10511 70.5597 5.30674C70.3505 5.50456 70.0975 5.60347 69.8008 5.60347ZM72.9408 15.7211V6.95591H74.5899V8.3483H74.6812C74.841 7.87656 75.1225 7.50564 75.5258 7.23553C75.9329 6.96162 76.3932 6.82466 76.9068 6.82466C77.0133 6.82466 77.1388 6.82847 77.2834 6.83608C77.4318 6.84368 77.5478 6.8532 77.6315 6.86461V8.49666C77.563 8.47764 77.4413 8.45672 77.2663 8.43389C77.0913 8.40726 76.9163 8.39395 76.7413 8.39395C76.338 8.39395 75.9785 8.47954 75.6628 8.65074C75.3508 8.81813 75.1035 9.0521 74.9209 9.35264C74.7383 9.64938 74.647 9.98796 74.647 10.3684V15.7211H72.9408ZM82.5719 15.898C81.7083 15.898 80.9646 15.7135 80.3406 15.3445C79.7205 14.9716 79.2412 14.4485 78.9026 13.7752C78.5678 13.098 78.4004 12.3048 78.4004 11.3956C78.4004 10.4977 78.5678 9.70644 78.9026 9.02166C79.2412 8.33688 79.7129 7.80237 80.3178 7.41814C80.9265 7.0339 81.6379 6.84178 82.4521 6.84178C82.9466 6.84178 83.426 6.92358 83.8901 7.08716C84.3542 7.25075 84.7708 7.50754 85.1398 7.85754C85.5088 8.20754 85.7999 8.66215 86.0129 9.22139C86.2259 9.77682 86.3325 10.4521 86.3325 11.2472V11.8521H79.3648V10.5738H84.6605C84.6605 10.1249 84.5692 9.72736 84.3866 9.38117C84.2039 9.03117 83.9472 8.75536 83.6162 8.55373C83.289 8.3521 82.9048 8.25129 82.4635 8.25129C81.9841 8.25129 81.5656 8.36922 81.208 8.60509C80.8542 8.83715 80.5803 9.1415 80.3863 9.51813C80.1961 9.89095 80.101 10.2961 80.101 10.7336V11.7322C80.101 12.3181 80.2037 12.8165 80.4091 13.2273C80.6184 13.6382 80.9094 13.9521 81.2822 14.1689C81.655 14.382 82.0906 14.4885 82.589 14.4885C82.9124 14.4885 83.2072 14.4428 83.4735 14.3515C83.7398 14.2564 83.97 14.1157 84.164 13.9292C84.358 13.7428 84.5064 13.5127 84.6091 13.2388L86.224 13.5298C86.0947 14.0053 85.8626 14.4219 85.5278 14.7795C85.1969 15.1333 84.7803 15.4091 84.2781 15.607C83.7798 15.801 83.211 15.898 82.5719 15.898Z" fill="#F5F5F2"/>
<path d="M13.994 13.9007C14.3998 12.6278 13.9431 11.4243 13.2142 10.1692C17.02 11.3838 18.606 13.5696 18.5003 16.0095C18.4108 18.0432 17.045 19.6697 14.4122 19.6697C11.7795 19.6697 10.4103 18.1254 10.3242 16.0095C10.3092 15.4316 10.4537 14.8607 10.742 14.3588C11.0303 13.8569 11.4513 13.4431 11.9594 13.1625C11.9966 13.5768 12.0966 13.7702 12.2395 14.0357C12.6174 14.7374 13.7314 14.7233 13.994 13.9007Z" fill="#F5F5F2"/>
<path d="M0 1.6195C0 0.725073 0.725075 0 1.6195 0H6.58597C7.48039 0 8.20547 0.725075 8.20547 1.6195V18.0304C8.20547 18.9249 7.48039 19.6499 6.58597 19.6499H1.6195C0.725075 19.6499 0 18.9249 0 18.0304V1.6195Z" fill="#F5F5F2"/>
<path d="M18.5286 4.10273C18.5286 6.36861 16.6917 8.20547 14.4259 8.20547C12.16 8.20547 10.3231 6.36861 10.3231 4.10273C10.3231 1.83686 12.16 0 14.4259 0C16.6917 0 18.5286 1.83686 18.5286 4.10273Z" fill="#F5F5F2"/>
</svg>
