<svg width="123" height="22" viewBox="0 0 123 22" fill="none" xmlns="http://www.w3.org/2000/svg">
<path d="M109.978 17.5945C109.674 17.5945 109.486 17.2635 109.642 17.0024L113.551 10.4372L109.96 4.27741C109.808 4.01627 109.996 3.68843 110.299 3.68843H113.872C114.018 3.68843 114.152 3.76961 114.22 3.89907L116.27 7.83107L118.281 3.90162C118.348 3.77076 118.483 3.68843 118.63 3.68843H121.772C122.071 3.68843 122.26 4.0104 122.114 4.27152L118.738 10.3011L122.655 17.0051C122.807 17.2663 122.619 17.5945 122.317 17.5945H118.722C118.577 17.5945 118.444 17.5151 118.376 17.3878L115.922 12.81L113.469 17.3878C113.4 17.5151 113.268 17.5945 113.123 17.5945H109.978Z" fill="#F5F5F2"/>
<path d="M100.216 17.7904C95.913 17.7904 93.2305 14.8805 93.2305 10.7095V10.5543C93.2305 6.32507 96.2856 3.49268 100.272 3.49268C104.333 3.49268 107.332 6.15047 107.332 10.4573V10.6125C107.332 14.8804 104.519 17.7904 100.216 17.7904ZM100.291 14.6671C102.172 14.6671 103.346 13.1539 103.346 10.6707V10.5155C103.346 8.05167 102.154 6.59667 100.272 6.59667C98.3906 6.59667 97.217 8.01287 97.217 10.5349V10.6901C97.217 13.2121 98.4465 14.6671 100.291 14.6671Z" fill="#F5F5F2"/>
<path d="M82.0662 17.5945C81.8974 17.5945 81.7476 17.4864 81.6944 17.3262L77.3389 4.20355C77.2548 3.94999 77.4436 3.68843 77.7107 3.68843H81.1774C81.3518 3.68843 81.5052 3.80376 81.5537 3.97132L84.2957 13.4518L87.0568 3.97062C87.1055 3.80341 87.2588 3.68843 87.4329 3.68843H90.3376C90.6041 3.68843 90.7928 3.94885 90.7098 4.20214L86.4095 17.3247C86.3567 17.4857 86.2066 17.5945 86.0372 17.5945H82.0662Z" fill="#F5F5F2"/>
<path d="M61.8917 17.5945C61.6754 17.5945 61.5 17.4191 61.5 17.2028V4.08015C61.5 3.86381 61.6754 3.68843 61.8917 3.68843H65.7319C65.8732 3.68843 66.0036 3.76457 66.073 3.88767L70.3827 11.5264V4.08015C70.3827 3.86381 70.558 3.68843 70.7744 3.68843H73.4475C73.6638 3.68843 73.8392 3.86381 73.8392 4.08015V17.2028C73.8392 17.4191 73.6638 17.5945 73.4475 17.5945H70.242C70.102 17.5945 69.9727 17.5198 69.9027 17.3986L64.9758 8.86187V17.2028C64.9758 17.4191 64.8004 17.5945 64.5841 17.5945H61.8917Z" fill="#F5F5F2"/>
<path d="M49.8803 17.7904C45.5771 17.7904 42.8945 14.8805 42.8945 10.7095V10.5543C42.8945 6.32507 45.9496 3.49268 49.9362 3.49268C53.9972 3.49268 56.9964 6.15047 56.9964 10.4573V10.6125C56.9964 14.8804 54.1835 17.7904 49.8803 17.7904ZM49.9548 14.6671C51.8363 14.6671 53.0099 13.1539 53.0099 10.6707V10.5155C53.0099 8.05167 51.8177 6.59667 49.9362 6.59667C48.0547 6.59667 46.8811 8.01287 46.8811 10.5349V10.6901C46.8811 13.2121 48.1106 14.6671 49.9548 14.6671Z" fill="#F5F5F2"/>
<path d="M32.7044 17.7906C27.8495 17.7906 25.4609 14.962 25.4609 10.7192V10.5642C25.4609 6.30201 28.4904 3.49283 32.5491 3.49283C36.0177 3.49283 38.4656 5.0293 38.9468 8.39389C38.9794 8.6218 38.798 8.82059 38.5677 8.82059H35.2499C35.0501 8.82059 34.8849 8.66928 34.8456 8.47338C34.6067 7.27998 33.8477 6.63136 32.5685 6.63136C30.7819 6.63136 29.6556 8.02627 29.6556 10.5448V10.6998C29.6556 13.199 30.7236 14.6133 32.6267 14.6133C33.917 14.6133 34.8599 13.9864 35.1505 12.687C35.1935 12.4945 35.3574 12.3466 35.5547 12.3466H38.7486C38.9766 12.3466 39.1574 12.5417 39.1275 12.7677C38.6899 16.0763 36.1536 17.7906 32.7044 17.7906Z" fill="#F5F5F2"/>
<path d="M19.1123 13.6691C19.2761 13.576 19.4795 13.6944 19.4795 13.8829V15.1769C19.4794 15.4116 19.355 15.6288 19.1523 15.7472L10.1465 21.006C9.80699 21.2042 9.38558 21.2011 9.04883 20.9982L0.319336 15.7394C0.121194 15.62 0.000162489 15.4053 0 15.174V13.8878C0 13.698 0.206264 13.579 0.370117 13.6749L9.11816 18.798C9.42619 18.9783 9.80721 18.9808 10.1172 18.8038L19.1123 13.6691ZM19.1123 9.60169C19.2761 9.50848 19.4795 9.62699 19.4795 9.81555V11.2277C19.4795 11.3887 19.394 11.538 19.2549 11.6193L10.1465 16.9386C9.80699 17.1369 9.38558 17.1337 9.04883 16.9308L0.319336 11.672C0.121002 11.5525 0 11.3371 0 11.1056V9.81946C0.000198347 9.62973 0.206331 9.51164 0.370117 9.60755L9.11816 14.7306C9.42617 14.9108 9.80725 14.9124 10.1172 14.7355L19.1123 9.60169ZM9.04883 0.154422C9.38558 -0.0484649 9.80699 -0.0516409 10.1465 0.146609L19.2549 5.46595C19.283 5.4824 19.3085 5.50202 19.332 5.52356C19.416 5.56071 19.4795 5.6424 19.4795 5.7472V7.16028C19.4794 7.32121 19.3938 7.46969 19.2549 7.55091L10.1465 12.8702C9.80699 13.0685 9.38558 13.0663 9.04883 12.8634L0.219727 7.54309C0.0837764 7.46119 0.000154441 7.3141 0 7.1554V5.75208C0 5.64674 0.0639768 5.56436 0.148438 5.52747C0.170174 5.50767 0.194007 5.48925 0.219727 5.47376L9.04883 0.154422ZM10.1172 2.34876C9.80721 2.17182 9.4262 2.17433 9.11816 2.35462L2.02539 6.50794L9.11816 10.6622C9.4262 10.8425 9.8072 10.845 10.1172 10.6681L17.4023 6.50794L10.1172 2.34876Z" fill="#F5F5F2"/>
</svg>
