<svg width="72" height="72" viewBox="0 0 72 72" fill="none" xmlns="http://www.w3.org/2000/svg">
<path d="M35.502 42.4551L35.502 58.3659" stroke="white"/>
<path d="M35.502 12.3066L35.502 28.2174" stroke="white"/>
<path d="M28.5977 35.625H12.0146" stroke="white"/>
<path d="M58.8086 35.625H42.2255" stroke="white"/>
<path d="M51.4414 20.2637L40.3864 31.0291" stroke="white"/>
<path d="M30.2461 40.9043L19.8465 51.0315" stroke="white"/>
<path d="M51.2578 50.582L40.4711 40.0778" stroke="white"/>
<path d="M30.7109 30.5742L19.9836 20.1279" stroke="white"/>
<path d="M54.4863 12.1992C57.3064 12.1994 59.5693 14.4224 59.5693 17.1367C59.5693 19.851 57.3064 22.0741 54.4863 22.0742C51.6661 22.0742 49.4024 19.8511 49.4023 17.1367C49.4023 14.4223 51.6661 12.1992 54.4863 12.1992Z" stroke="white"/>
<path d="M35.501 28.5117C39.5546 28.5118 42.8183 31.7085 42.8184 35.624C42.8184 39.5396 39.5546 42.7362 35.501 42.7363C31.4472 42.7363 28.1836 39.5397 28.1836 35.624C28.1836 31.7084 31.4473 28.5117 35.501 28.5117Z" stroke="white"/>
<path d="M16.5176 12.1992C19.3377 12.1994 21.6006 14.4224 21.6006 17.1367C21.6005 19.851 19.3376 22.0741 16.5176 22.0742C13.6974 22.0742 11.4336 19.8511 11.4336 17.1367C11.4336 14.4223 13.6973 12.1992 16.5176 12.1992Z" stroke="white"/>
<path d="M54.4863 49.1738C57.3064 49.174 59.5693 51.397 59.5693 54.1113C59.5693 56.8256 57.3064 59.0487 54.4863 59.0488C51.6661 59.0488 49.4024 56.8257 49.4023 54.1113C49.4023 51.3969 51.6661 49.1738 54.4863 49.1738Z" stroke="white"/>
<path d="M7.58398 30.6875C10.4041 30.6877 12.667 32.9107 12.667 35.625C12.6669 38.3393 10.404 40.5623 7.58398 40.5625C4.76379 40.5625 2.50005 38.3394 2.5 35.625C2.5 32.9106 4.76376 30.6875 7.58398 30.6875Z" stroke="white"/>
<path d="M63.4199 30.6875C66.24 30.6877 68.5029 32.9107 68.5029 35.625C68.5029 38.3393 66.24 40.5623 63.4199 40.5625C60.5997 40.5625 58.336 38.3394 58.3359 35.625C58.3359 32.9106 60.5997 30.6875 63.4199 30.6875Z" stroke="white"/>
<path d="M40.5859 8.4375C40.5859 11.1519 38.3222 13.375 35.502 13.375C32.6819 13.3748 30.419 11.1518 30.4189 8.4375C30.4189 5.72317 32.6819 3.50016 35.502 3.5C38.3222 3.5 40.5859 5.72307 40.5859 8.4375Z" stroke="white"/>
<path d="M40.5859 62.8125C40.5859 65.5269 38.3222 67.75 35.502 67.75C32.6819 67.7498 30.419 65.5268 30.4189 62.8125C30.4189 60.0982 32.6819 57.8752 35.502 57.875C38.3222 57.875 40.5859 60.0981 40.5859 62.8125Z" stroke="white"/>
<path d="M16.5176 49.1738C19.3377 49.174 21.6006 51.397 21.6006 54.1113C21.6005 56.8256 19.3376 59.0487 16.5176 59.0488C13.6974 59.0488 11.4336 56.8257 11.4336 54.1113C11.4336 51.3969 13.6973 49.1738 16.5176 49.1738Z" stroke="white"/>
</svg>
