<svg width="72" height="72" viewBox="0 0 72 72" fill="none" xmlns="http://www.w3.org/2000/svg">
<path d="M37.0539 27.5435L37.5289 27.3874L37.2167 26.4374L36.7417 26.5935L36.8978 27.0685L37.0539 27.5435ZM28.4874 29.8327L28.641 30.3085L28.6435 30.3077L28.4874 29.8327ZM26.3648 24.6699L26.1412 24.2227L26.1392 24.2237L26.3648 24.6699ZM34.5134 20.5968L34.2911 20.149L34.2898 20.1496L34.5134 20.5968ZM39.0204 20.3468L38.849 20.8165L38.8499 20.8169L39.0204 20.3468ZM51.0487 24.71H51.5487C51.5487 24.4996 51.417 24.3118 51.2192 24.24L51.0487 24.71ZM51.0487 41.5728L51.1301 42.0661C51.3716 42.0263 51.5487 41.8175 51.5487 41.5728H51.0487ZM36.8022 43.4172C36.5298 43.4621 36.3453 43.7195 36.3903 43.9919C36.4353 44.2644 36.6926 44.4488 36.965 44.4038L36.8836 43.9105L36.8022 43.4172ZM36.8978 27.0685L36.7417 26.5935L28.3313 29.3577L28.4874 29.8327L28.6435 30.3077L37.0539 27.5435L36.8978 27.0685ZM28.4874 29.8327L28.3339 29.3568C27.7829 29.5346 27.1853 29.4981 26.6601 29.2545L26.4497 29.7081L26.2393 30.1617C26.9929 30.5112 27.8505 30.5636 28.641 30.3085L28.4874 29.8327ZM26.4497 29.7081L26.6601 29.2545C26.135 29.0109 25.721 28.5783 25.5009 28.0429L25.0384 28.233L24.576 28.4231C24.8918 29.1913 25.4858 29.8122 26.2393 30.1617L26.4497 29.7081ZM25.0384 28.233L25.5009 28.0429C25.2807 27.5075 25.2706 26.9087 25.4726 26.3662L25.004 26.1918L24.5354 26.0174C24.2456 26.7958 24.2601 27.6549 24.576 28.4231L25.0384 28.233ZM25.004 26.1918L25.4726 26.3662C25.6745 25.8237 26.0737 25.3773 26.5903 25.1162L26.3648 24.6699L26.1392 24.2237C25.3979 24.5984 24.8252 25.2389 24.5354 26.0174L25.004 26.1918ZM26.3648 24.6699L26.5883 25.1172L34.7369 21.0441L34.5134 20.5968L34.2898 20.1496L26.1412 24.2227L26.3648 24.6699ZM34.5134 20.5968L34.7356 21.0447C35.37 20.7298 36.0618 20.5472 36.7689 20.508L36.7412 20.0088L36.7135 19.5096C35.871 19.5563 35.0469 19.7738 34.2911 20.149L34.5134 20.5968ZM36.7412 20.0088L36.7689 20.508C37.476 20.4688 38.1837 20.5738 38.849 20.8165L39.0204 20.3468L39.1918 19.8771C38.3992 19.5879 37.556 19.4628 36.7135 19.5096L36.7412 20.0088ZM39.0204 20.3468L38.8499 20.8169L50.8782 25.1801L51.0487 24.71L51.2192 24.24L39.1909 19.8768L39.0204 20.3468ZM51.0487 24.71H50.5487V41.5728H51.0487H51.5487V24.71H51.0487ZM51.0487 41.5728L50.9673 41.0795L36.8022 43.4172L36.8836 43.9105L36.965 44.4038L51.1301 42.0661L51.0487 41.5728Z" fill="white"/>
<path d="M2.41406 41.6207H16.8495L25.3165 50.7084C25.7472 51.2087 26.3208 51.5652 26.9601 51.7299C27.5994 51.8946 28.2738 51.8597 28.8927 51.6299C29.5116 51.4001 30.0453 50.9863 30.4221 50.4442C30.7989 49.9021 31.0007 49.2577 31.0005 48.5975V47.114L31.4226 47.2838C32.0284 47.5258 32.6842 47.6157 33.3328 47.5456C33.9813 47.4755 34.6028 47.2476 35.1429 46.8818C35.683 46.516 36.1252 46.0234 36.431 45.4472C36.7367 44.871 36.8966 44.2286 36.8967 43.5763H38.0759C38.7329 43.5763 39.377 43.3933 39.9358 43.0479C40.4947 42.7025 40.9464 42.2083 41.2402 41.6207C41.534 41.033 41.6584 40.3752 41.5994 39.7208C41.5404 39.0665 41.3003 38.4415 40.9061 37.9159L33.359 28.2461" stroke="white" stroke-linecap="round" stroke-linejoin="round"/>
<path d="M27.586 24.0484L26.7228 23.3409C26.0305 22.8279 25.2186 22.5004 24.3642 22.3894C23.5097 22.2783 21.8944 22.2914 21.094 22.6104L10.9053 24.5915" stroke="white" stroke-linecap="round" stroke-linejoin="round"/>
<path d="M30.6475 47.4679C30.8428 47.6632 31.1594 47.6632 31.3546 47.4679C31.5499 47.2726 31.5499 46.9561 31.3546 46.7608L31.0011 47.1143L30.6475 47.4679ZM28.9961 44.4023L28.6426 44.0488L27.9355 44.7559L28.289 45.1094L28.6426 44.7559L28.9961 44.4023ZM31.0011 47.1143L31.3546 46.7608L28.9961 44.4023L28.6426 44.7559L28.289 45.1094L30.6475 47.4679L31.0011 47.1143Z" fill="white"/>
<path d="M33.7139 39.6855L33.3604 39.332L32.6532 40.0391L33.0068 40.3926L33.3604 40.0391L33.7139 39.6855ZM36.5445 43.9304C36.7398 44.1256 37.0564 44.1256 37.2516 43.9304C37.4469 43.7351 37.4469 43.4185 37.2516 43.2232L36.8981 43.5768L36.5445 43.9304ZM33.3604 40.0391L33.0068 40.3926L36.5445 43.9304L36.8981 43.5768L37.2516 43.2232L33.7139 39.6855L33.3604 40.0391Z" fill="white"/>
<path d="M50.8113 41.571L61 41.571L61 24.5898L50.8113 24.5898" stroke="white"/>
<rect x="10.6221" y="24.5898" width="16.9811" height="9.62264" transform="rotate(90 10.6221 24.5898)" stroke="white"/>
</svg>
