<svg width="50" height="41" viewBox="0 0 50 41" fill="none" xmlns="http://www.w3.org/2000/svg">
<path d="M-8.94723e-07 20.4687C-4.01329e-07 31.7561 9.18133 40.9374 20.4689 40.9374C29.9369 40.9374 38.302 34.2565 40.4162 25.0394L30.8327 25.0394C29.0291 29.1164 24.968 31.7999 20.4689 31.7999C14.2219 31.7999 9.14151 26.7156 9.14151 20.4687C9.14151 14.2218 14.2219 9.13748 20.4689 9.13748C24.968 9.13748 29.0291 11.821 30.8327 15.898L40.4162 15.898C38.306 6.67694 29.9369 2.92052e-05 20.4689 2.9619e-05C9.18133 3.01124e-05 -1.38812e-06 9.18127 -8.94723e-07 20.4687Z" fill="#F5F5F2"/>
<path d="M50.0001 15.9031H40.417V25.0434H50.0001V15.9031Z" fill="#F5F5F2"/>
</svg>
