<svg preserveAspectRatio="none" width="100%" height="100%" overflow="visible" style="display: block;" viewBox="0 0 72.2079 76.6551" fill="none" xmlns="http://www.w3.org/2000/svg">
<g id="Group 22">
<g id="Vector">
<path d="M54.5361 54.1725C56.1176 49.2117 54.3379 44.5218 51.4971 39.6304C66.3289 44.3639 72.5096 52.8822 72.0976 62.3907C71.7488 70.3161 66.426 76.6551 56.166 76.6551C45.906 76.6551 40.57 70.6367 40.2344 62.3907C40.1761 60.1387 40.7393 57.9138 41.8628 55.9578C42.9863 54.0018 44.6271 52.3894 46.6071 51.2957C46.7521 52.9102 47.1417 53.6639 47.6988 54.6985C49.1714 57.4334 53.5128 57.3784 54.5361 54.1725Z" fill="var(--fill-0, #F5F5F5)"/>
<path d="M0 6.31136C0 2.82569 2.8257 0 6.31137 0H25.6662C29.1519 0 31.9776 2.82569 31.9776 6.31137V70.2665C31.9776 73.7522 29.1519 76.5779 25.6662 76.5779H6.31137C2.8257 76.5779 0 73.7522 0 70.2665V6.31136Z" fill="var(--fill-0, #F5F5F5)"/>
<path d="M72.2079 15.9888C72.2079 24.8192 65.0495 31.9776 56.2191 31.9776C47.3888 31.9776 40.2303 24.8192 40.2303 15.9888C40.2303 7.15843 47.3888 0 56.2191 0C65.0495 0 72.2079 7.15843 72.2079 15.9888Z" fill="var(--fill-0, #F5F5F5)"/>
</g>
</g>
</svg>
