<svg width="98" height="23" viewBox="0 0 98 23" fill="none" xmlns="http://www.w3.org/2000/svg">
<path d="M8.71191 0C13.5234 0 17.4237 3.90043 17.4238 8.71191C17.4238 13.0893 14.1958 16.7117 9.99023 17.3301V18.0049C9.99023 20.7635 7.75369 22.9999 4.99512 23C2.23647 23 0 20.7635 0 18.0049V8.47949C1.4216e-05 8.21781 0.019797 7.96078 0.0585938 7.70996C0.55569 3.37056 4.23942 0.000113164 8.71191 0ZM2.55566 18.0049C2.55566 19.3521 3.64787 20.4443 4.99512 20.4443C6.34229 20.4442 7.43457 19.3521 7.43457 18.0049V17.3301C5.54196 17.0519 3.84734 16.1661 2.55566 14.876V18.0049ZM4.99512 6.04004C3.76547 6.04004 2.75121 6.95061 2.58301 8.13379C2.56527 8.32413 2.55567 8.51694 2.55566 8.71191C2.55566 11.674 4.64755 14.1471 7.43457 14.7354V8.47949C7.43442 7.13243 6.3422 6.04013 4.99512 6.04004ZM8.71191 2.55566C7.50475 2.55571 6.37903 2.90354 5.42871 3.50391C7.98415 3.72375 9.99009 5.86712 9.99023 8.47949V14.7354C12.777 14.1469 14.8691 11.6738 14.8691 8.71191C14.869 5.31183 12.112 2.55566 8.71191 2.55566Z" fill="#F5F5F2"/>
<path d="M32.2238 4.95C34.9058 4.95 37.9658 5.328 37.9658 9.27C37.9658 12.6 35.3018 13.41 32.2958 13.41H30.3338V18H27.7598V4.95H32.2238ZM30.3338 6.966V11.412H32.4578C34.0598 11.412 35.3198 11.016 35.3198 9.288C35.3198 7.146 33.6818 6.966 32.2778 6.966H30.3338ZM38.2375 13.176C38.2375 9.774 40.6495 8.1 43.0975 8.1C45.5455 8.1 47.9575 9.774 47.9575 13.176C47.9575 16.578 45.5455 18.234 43.0975 18.234C40.6495 18.234 38.2375 16.578 38.2375 13.176ZM40.7575 13.176C40.7575 15.192 41.7295 16.29 43.0975 16.29C44.4655 16.29 45.4375 15.192 45.4375 13.176C45.4375 11.142 44.4655 10.044 43.0975 10.044C41.7295 10.044 40.7575 11.142 40.7575 13.176ZM52.0219 18H49.5379V4.95H52.0219V18ZM54.1768 21.15V19.242H55.1128C55.9408 19.242 56.3188 19.26 56.7328 18.234L56.8408 17.964L53.1328 8.316H55.8508L58.0468 15.3L60.2968 8.316H62.8168L59.2708 17.712C58.1368 20.718 57.6328 21.15 55.2208 21.15H54.1768ZM74.3024 10.098C72.6464 10.098 72.3764 11.484 72.3764 12.96V18H69.8924V12.366C69.8924 11.304 69.8024 10.098 68.3444 10.098C66.6884 10.098 66.4184 11.484 66.4184 12.96V18H63.9344V8.316H66.4184V9.594C66.9584 8.64 67.9484 8.1 69.1184 8.1C70.7744 8.1 71.4944 8.982 71.8724 9.684C72.6284 8.604 73.6004 8.1 75.0584 8.1C77.4884 8.1 78.3344 9.612 78.3344 11.898V18H75.8504V12.366C75.8504 11.304 75.7604 10.098 74.3024 10.098ZM82.2586 13.842C82.3846 15.498 83.5366 16.308 84.7066 16.308C85.4626 16.308 86.2366 16.038 86.7406 15.192H89.2966C88.7746 16.632 87.3526 18.234 84.7246 18.234C81.6106 18.234 79.7926 15.912 79.7926 13.122C79.7926 10.242 81.7906 8.1 84.6526 8.1C87.6406 8.1 89.5126 10.422 89.4046 13.842H82.2586ZM82.2946 12.132H86.8846C86.8306 10.494 85.6786 9.918 84.6346 9.918C83.6986 9.918 82.4926 10.512 82.2946 12.132ZM96.5487 10.71C96.1887 10.674 95.8827 10.656 95.5227 10.656C94.2987 10.656 93.4887 11.106 93.4887 12.924V18H91.0047V8.316H93.4527V10.008C94.0107 8.82 94.8927 8.334 96.0087 8.334C96.1707 8.334 96.3867 8.352 96.5487 8.37V10.71Z" fill="#F5F5F2"/>
</svg>
