<svg width="168" height="23" viewBox="0 0 168 23" fill="none" xmlns="http://www.w3.org/2000/svg">
<path d="M42.7786 14.1947V2.52306C42.7786 2.35238 42.8813 2.25 43.0524 2.25H45.7332C45.9043 2.25 46.007 2.35238 46.007 2.52306V14.263C46.007 18.563 43.0866 21.0544 39.1363 21.0544C35.2202 21.0544 32.2656 18.563 32.2656 14.263V2.52306C32.2656 2.35238 32.3683 2.25 32.541 2.25H35.2202C35.3913 2.25 35.494 2.35238 35.494 2.52306V14.1947C35.494 16.7542 37.0063 18.1534 39.1021 18.1534C41.2663 18.1534 42.7786 16.7542 42.7786 14.1947Z" fill="#F5F5F2"/>
<path d="M48.7571 18.5984C48.6528 18.496 48.5843 18.3253 48.6886 18.1889L50.3721 16.2437C50.4747 16.1072 50.6458 16.1072 50.7485 16.2096C51.9512 17.1651 53.7373 18.1548 55.8331 18.1548C58.0673 18.1548 59.3385 17.0286 59.3385 15.4929C59.3385 14.1618 58.5139 13.2746 55.9374 12.9332L54.94 12.7968C51.3336 12.3189 49.3063 10.5785 49.3063 7.50703C49.3063 4.16253 51.7801 1.91016 55.6277 1.91016C57.963 1.91016 60.1973 2.66089 61.6738 3.75301C61.8123 3.85539 61.8465 3.95777 61.7422 4.1283L60.4369 6.14184C60.3342 6.27845 60.1973 6.31254 60.0588 6.21016C58.5481 5.22042 57.1384 4.77682 55.5935 4.77682C53.7031 4.77682 52.6731 5.80062 52.6731 7.26803C52.6731 8.53084 53.5662 9.4182 56.1085 9.75942L57.1042 9.89587C60.7123 10.3737 62.6711 12.0801 62.6711 15.2539C62.6711 18.5643 60.3 20.9874 55.662 20.9874C52.8785 21.0556 50.1993 19.9636 48.7571 18.5984Z" fill="#F5F5F2"/>
<path d="M65.6914 2.52306C65.6914 2.35238 65.7957 2.25 65.9668 2.25H77.6483C77.8194 2.25 77.9221 2.35238 77.9221 2.52306V4.87783C77.9221 5.04852 77.8194 5.1509 77.6483 5.1509H69.0925C68.9899 5.1509 68.9214 5.21905 68.9214 5.32143V9.82635C68.9214 9.92873 68.9899 9.99704 69.0925 9.99704H76.3087C76.4798 9.99704 76.5825 10.0994 76.5825 10.2699V12.6249C76.5825 12.7954 76.4798 12.8978 76.3087 12.8978H69.0925C68.9899 12.8978 68.9214 12.9661 68.9214 13.0685V17.7439C68.9214 17.8463 68.9899 17.9146 69.0925 17.9146H77.6483C77.8194 17.9146 77.9221 18.017 77.9221 18.1875V20.5424C77.9221 20.713 77.8194 20.8154 77.6483 20.8154H65.9668C65.7957 20.8154 65.6914 20.713 65.6914 20.5424V2.52306Z" fill="#F5F5F2"/>
<path d="M92.4564 20.7472C92.2495 20.7472 92.1126 20.6789 92.0441 20.4741L88.4703 13.2732H85.2761C85.1734 13.2732 85.1034 13.3415 85.1034 13.4439V20.5082C85.1034 20.6789 85.0007 20.7813 84.8296 20.7813H82.1488C81.9777 20.7813 81.875 20.6789 81.875 20.5082V2.52306C81.875 2.35238 81.9777 2.25 82.1488 2.25H89.3633C92.8003 2.25 95.3067 4.50237 95.3067 7.77873C95.3067 10.2018 93.8987 12.0787 91.7687 12.8637L95.6848 20.4058C95.7891 20.6106 95.6848 20.7472 95.4794 20.7472H92.4564ZM92.1126 7.77873C92.1126 6.1747 90.9441 5.1509 89.2606 5.1509H85.2761C85.1734 5.1509 85.1034 5.21904 85.1034 5.32143V10.2359C85.1034 10.3383 85.1734 10.4066 85.2761 10.4066H89.2606C90.9441 10.3723 92.1126 9.34851 92.1126 7.77873Z" fill="#F5F5F2"/>
<path d="M103.724 20.7472C103.552 20.7472 103.449 20.6448 103.38 20.4741L97.4713 2.52306C97.4029 2.35238 97.5398 2.25 97.6767 2.25H100.323C100.529 2.25 100.631 2.3183 100.667 2.52306L104.823 15.628H104.891L108.912 2.52306C108.98 2.3183 109.083 2.25 109.255 2.25H111.9C112.072 2.25 112.176 2.35238 112.107 2.52306L106.198 20.4741C106.128 20.6448 106.025 20.7472 105.854 20.7472H103.724Z" fill="#F5F5F2"/>
<path d="M114.614 16.5842C114.235 15.4237 114.133 14.3999 114.133 11.4992C114.133 8.59829 114.235 7.5404 114.614 6.41421C115.577 3.47924 117.98 1.94336 121.21 1.94336C124.44 1.94336 126.844 3.47924 127.806 6.41421C128.184 7.57448 128.288 8.59829 128.288 11.4992C128.288 14.3999 128.184 15.458 127.806 16.5842C126.844 19.5191 124.44 21.0549 121.21 21.0549C117.98 21.0549 115.577 19.5191 114.614 16.5842ZM124.68 15.7309C124.887 15.0485 125.024 14.0928 125.024 11.4992C125.024 8.87136 124.921 7.94993 124.68 7.26734C124.165 5.7657 123.065 4.84427 121.21 4.84427C119.39 4.84427 118.29 5.7657 117.741 7.26734C117.534 7.94993 117.397 8.87136 117.397 11.4992C117.397 14.127 117.5 15.0485 117.741 15.7309C118.256 17.2325 119.356 18.154 121.21 18.154C123.031 18.154 124.131 17.2325 124.68 15.7309Z" fill="#F5F5F2"/>
<path d="M132.168 2.52306C132.168 2.35238 132.271 2.25 132.442 2.25H135.121C135.294 2.25 135.396 2.35238 135.396 2.52306V20.4741C135.396 20.6448 135.294 20.7472 135.121 20.7472H132.442C132.271 20.7472 132.168 20.6448 132.168 20.4741V2.52306Z" fill="#F5F5F2"/>
<path d="M139.316 11.4992C139.316 8.56422 139.421 7.64278 139.797 6.48236C140.76 3.445 143.13 1.94336 146.257 1.94336C149.246 1.94336 151.479 3.47924 152.579 5.90215C152.647 6.03877 152.579 6.17523 152.44 6.24353L150.105 7.36972C149.932 7.43803 149.795 7.36973 149.761 7.23327C149.142 5.93639 148.112 4.84427 146.291 4.84427C144.505 4.84427 143.474 5.79978 142.959 7.30142C142.718 8.05232 142.615 8.80306 142.615 11.5333C142.615 14.2635 142.683 14.9802 142.959 15.7651C143.474 17.2668 144.505 18.2223 146.291 18.2223C148.112 18.2223 149.178 17.1302 149.761 15.8333C149.829 15.6968 149.966 15.6285 150.105 15.6968L152.44 16.823C152.579 16.8913 152.647 17.0278 152.579 17.1644C151.513 19.6215 149.246 21.1232 146.257 21.1232C143.096 21.1232 140.76 19.5873 139.797 16.5842C139.421 15.3556 139.316 14.4342 139.316 11.4992Z" fill="#F5F5F2"/>
<path d="M155.738 2.52306C155.738 2.35238 155.841 2.25 156.014 2.25H167.694C167.866 2.25 167.969 2.35238 167.969 2.52306V4.87783C167.969 5.04852 167.866 5.1509 167.694 5.1509H159.139C159.037 5.1509 158.968 5.21905 158.968 5.32143V9.82635C158.968 9.92873 159.037 9.99704 159.139 9.99704H166.354C166.527 9.99704 166.629 10.0994 166.629 10.2699V12.6249C166.629 12.7954 166.527 12.8978 166.354 12.8978H159.139C159.037 12.8978 158.968 12.9661 158.968 13.0685V17.7439C158.968 17.8463 159.037 17.9146 159.139 17.9146H167.694C167.866 17.9146 167.969 18.017 167.969 18.1875V20.5424C167.969 20.713 167.866 20.8154 167.694 20.8154H156.014C155.841 20.8154 155.738 20.713 155.738 20.5424V2.52306Z" fill="#F5F5F2"/>
<path d="M14.6638 0L10.8051 2.56065V16.1C10.8051 17.388 10.1571 18.5227 9.18474 19.228C8.25851 18.492 7.71814 17.3113 7.71814 16.1V15.3334C7.71814 14.5667 6.9464 13.8 6.9464 13.0333C6.9464 12.4966 7.31689 11.96 7.54827 11.4387C7.6559 11.224 7.71814 10.994 7.71814 10.7334C7.71814 9.88999 7.02328 9.2 6.17465 9.2C5.3253 9.2 4.63117 9.88999 4.63117 10.7334C4.63117 10.9787 4.69268 11.224 4.80105 11.4387C5.03243 11.9753 5.40291 12.512 5.40291 13.0333C5.40291 13.8 4.63117 14.5667 4.63117 15.3334V16.1C4.63117 17.48 5.06317 18.722 5.80416 19.7647C4.22993 19.274 3.08769 17.8173 3.08769 16.1V15.3334C3.08769 14.5667 2.31522 13.8 2.31522 13.0333C2.31522 12.4966 2.68572 11.96 2.91782 11.4387C3.02546 11.224 3.08769 10.994 3.08769 10.7334C3.08769 9.88999 2.39284 9.2 1.54348 9.2C0.69486 9.2 0 9.88999 0 10.7334C0 10.9787 0.0622332 11.224 0.169867 11.4387C0.401243 11.9753 0.771741 12.4966 0.771741 13.0333C0.771741 13.8 0 14.5667 0 15.3334V16.1C0 19.9027 3.11845 23 6.9464 23C10.7743 23 13.8921 19.9027 13.8921 16.1V4.04801L14.6638 3.54202L15.4355 4.04801C15.4355 4.04801 15.4355 15.9007 15.4355 15.9467C15.4355 18.492 14.6638 21.0527 11.7313 22.8466C14.7107 22.8466 18.4302 19.5193 18.5232 15.18V2.56065L14.6638 0Z" fill="#F5F5F2"/>
<path d="M7.71588 6.60187C7.72027 5.75507 7.03274 5.06501 6.18045 5.06057C5.32817 5.05619 4.63332 5.73911 4.62893 6.58598C4.62453 7.43277 5.31207 8.12283 6.16435 8.12728C7.01664 8.13165 7.71149 7.44874 7.71588 6.60187Z" fill="#F5F5F2"/>
<path d="M7.71588 2.46129C7.72027 1.61443 7.03274 0.924362 6.18045 0.919989C5.32817 0.915615 4.63332 1.59853 4.62893 2.44533C4.62453 3.29219 5.31207 3.98226 6.16435 3.98663C7.01664 3.99108 7.71149 3.30816 7.71588 2.46129Z" fill="#F5F5F2"/>
<path d="M1.54348 8.12537C2.39576 8.12537 3.08696 7.43888 3.08696 6.59201C3.08696 5.74515 2.39576 5.05865 1.54348 5.05865C0.691199 5.05865 0 5.74515 0 6.59201C0 7.43888 0.691199 8.12537 1.54348 8.12537Z" fill="#F5F5F2"/>
<path d="M1.54348 3.98668C2.39576 3.98668 3.08696 3.30012 3.08696 2.45332C3.08696 1.60645 2.39576 0.919968 1.54348 0.919968C0.691199 0.919968 0 1.60645 0 2.45332C0 3.30012 0.691199 3.98668 1.54348 3.98668Z" fill="#F5F5F2"/>
</svg>
